<?xml version="1.0" encoding="iso-8859-1"?>
<!-- Generator: Adobe Illustrator 19.0.0, SVG Export Plug-In . SVG Version: 6.00 Build 0)  -->
<svg version="1.1" id="Capa_1" xmlns="http://www.w3.org/2000/svg" xmlns:xlink="http://www.w3.org/1999/xlink" x="0px" y="0px"
	 viewBox="0 0 480.17 480.17" style="enable-background:new 0 0 480.17 480.17;" xml:space="preserve">
<g>
	<g>
		<path d="M336.085,32.17c-22.08,0.026-39.974,17.92-40,40c0,13.255-10.745,24-24,24h-8V72.002c17.673-13.255,21.255-38.327,8-56
			c-13.255-17.673-38.327-21.255-56-8c-17.673,13.255-21.255,38.327-8,56c2.274,3.032,4.968,5.726,8,8V96.17h-8
			c-13.255,0-24-10.745-24-24c-0.026-22.08-17.92-39.974-40-40h-144v8c0.034,19.263,13.793,35.766,32.736,39.264
			c3.027,16.255,15.745,28.973,32,32c3.498,18.943,20.001,32.702,39.264,32.736h112v80h-56c-4.418,0-8-3.582-8-8s3.582-8,8-8h16
			c13.255,0,24-10.745,24-24s-10.745-24-24-24h-16c-30.888-0.04-55.961,24.967-56.001,55.855
			c-0.022,16.63,7.358,32.407,20.137,43.049c-9.172,22.541-2.7,48.427,16,64c-9.174,22.541-2.703,48.428,16,64
			c-11.651,28.649,2.129,61.319,30.778,72.97c6.696,2.723,13.857,4.124,21.086,4.126h8v16h48v-16h8
			c30.884,0.044,55.956-24.956,56-55.84c0.01-7.292-1.405-14.516-4.168-21.264c18.76-15.536,25.242-41.464,16-64
			c18.76-15.536,25.242-41.464,16-64c23.739-19.748,26.975-55.001,7.228-78.74c-10.64-12.79-26.423-20.178-43.06-20.156h-16
			c-13.255,0-24,10.745-24,24s10.745,24,24,24h16c4.418,0,8,3.582,8,8s-3.582,8-8,8h-56v-80h112
			c19.263-0.034,35.766-13.793,39.264-32.736c16.255-3.027,28.973-15.745,32-32c18.943-3.498,32.702-20.001,32.736-39.264v-8
			H336.085z M240.085,16.17c13.255,0,24,10.745,24,24c0.006,8.54-4.577,16.425-12,20.648l-4,2.312v33.04h-16V63.13l-4-2.312
			c-7.423-4.223-12.006-12.108-12-20.648C216.085,26.916,226.83,16.17,240.085,16.17z M216.085,448.17h-8
			c-21.976,0.118-39.887-17.602-40.005-39.578c-0.023-4.386,0.678-8.745,2.077-12.902c4.948,2.107,10.176,3.484,15.52,4.088
			c-1.033,2.678-1.573,5.521-1.592,8.392c0,13.255,10.745,24,24,24h8c4.418,0,8,3.582,8,8S220.503,448.17,216.085,448.17z
			 M200.085,408.17c0-4.418,3.582-8,8-8h8v16h-8C203.667,416.17,200.085,412.589,200.085,408.17z M248.085,464.17h-16v-6.24
			c9.806-8.68,10.72-23.665,2.04-33.472c-0.638-0.721-1.319-1.402-2.04-2.04V400.17h16V464.17z M272.085,448.17h-8v-16h8
			c13.255,0,24-10.745,24-24s-10.745-24-24-24h-80c-21.981,0.112-39.89-17.617-40.002-39.597c-0.022-4.379,0.678-8.732,2.074-12.883
			c4.948,2.107,10.176,3.484,15.52,4.088c-1.033,2.678-1.573,5.521-1.592,8.392c0,13.255,10.745,24,24,24h80
			c22.091,0,40,17.909,40,40C312.085,430.262,294.177,448.17,272.085,448.17z M264.085,416.17v-16h8c4.418,0,8,3.582,8,8
			s-3.582,8-8,8H264.085z M184.085,344.17c0-4.418,3.582-8,8-8h24v16h-24C187.667,352.17,184.085,348.589,184.085,344.17z
			 M232.085,352.17v-16h16v16H232.085z M264.085,352.17v-16h24c4.418,0,8,3.582,8,8s-3.582,8-8,8H264.085z M315.653,373.074
			c-0.6-0.744-1.176-1.512-1.816-2.232c-2.97-3.293-6.321-6.22-9.984-8.72c9.968-8.656,11.031-23.754,2.375-33.722
			c-4.562-5.253-11.185-8.258-18.143-8.23h-112c-21.976,0.116-39.886-17.605-40.002-39.581c-0.023-4.39,0.68-8.755,2.082-12.915
			c4.916,2.11,10.111,3.497,15.424,4.12c-4.626,12.421,1.693,26.241,14.115,30.867c2.681,0.999,5.52,1.51,8.381,1.509h112
			c22.06-0.032,39.97,17.826,40.001,39.887C328.102,355.026,323.606,365.519,315.653,373.074z M168.085,280.17c0-4.418,3.582-8,8-8
			h40v16h-40C171.667,288.17,168.085,284.589,168.085,280.17z M232.085,288.17v-16h16v16H232.085z M264.085,288.17v-16h40
			c4.418,0,8,3.582,8,8s-3.582,8-8,8H264.085z M320.085,192.17h-16c-4.418,0-8-3.582-8-8s3.582-8,8-8h16
			c22.052-0.04,39.96,17.804,40,39.855c0.02,10.976-4.479,21.476-12.44,29.033c-3.385-4.192-7.354-7.877-11.784-10.944
			c9.963-8.661,11.019-23.76,2.357-33.723C333.657,195.144,327.038,192.143,320.085,192.17z M304.085,240.17
			c22.06-0.032,39.97,17.826,40.001,39.887c0.016,10.969-4.48,21.462-12.433,29.017c-3.387-4.198-7.358-7.889-11.792-10.96
			c9.963-8.661,11.019-23.76,2.357-33.723c-4.561-5.247-11.181-8.248-18.133-8.221h-144c-22.091,0-40-17.909-40-40s17.909-40,40-40
			h16c4.418,0,8,3.582,8,8s-3.582,8-8,8h-16c-13.255,0-24,10.745-24,24s10.745,24,24,24H304.085z M232.085,224.17v-80h16v80H232.085
			z M440.085,64.17h-64v16h54.528c-3.378,9.555-12.394,15.958-22.528,16h-64v16h54.528c-3.378,9.555-12.394,15.958-22.528,16h-272
			c-10.134-0.042-19.15-6.445-22.528-16h54.528v-16h-64c-10.134-0.042-19.15-6.445-22.528-16h54.528v-16h-64
			c-10.169-0.01-19.231-6.417-22.632-16h126.632c13.255,0,24,10.745,24,24c0.026,22.08,17.92,39.974,40,40h64
			c22.08-0.026,39.974-17.92,40-40c0-13.255,10.745-24,24-24h126.632C459.316,57.753,450.254,64.16,440.085,64.17z"/>
	</g>
</g>
<g>
</g>
<g>
</g>
<g>
</g>
<g>
</g>
<g>
</g>
<g>
</g>
<g>
</g>
<g>
</g>
<g>
</g>
<g>
</g>
<g>
</g>
<g>
</g>
<g>
</g>
<g>
</g>
<g>
</g>
</svg>
