<?xml version="1.0" encoding="iso-8859-1"?>
<!-- Generator: Adobe Illustrator 18.1.1, SVG Export Plug-In . SVG Version: 6.00 Build 0)  -->
<svg xmlns="http://www.w3.org/2000/svg" xmlns:xlink="http://www.w3.org/1999/xlink" version="1.1" id="Capa_1" x="0px" y="0px" viewBox="0 0 335.666 335.666" style="enable-background:new 0 0 335.666 335.666;" xml:space="preserve" width="512px" height="512px">
<g>
	<g id="Layer_5_9_">
		<g>
			<g>
				<path d="M118.218,154.354c-11.845-3.356-18.16-0.94-22.772,0.823c-2.929,1.121-3.866,1.417-5.972,0.821      c-3.719-1.053-7.59,1.107-8.644,4.827s1.058,7.78,4.826,8.643c3.873,0.887,7.004,0.881,9.502,0.447      c1.884-0.647,1.724,0.514,1.782,0.966c0.885,6.778,7.463,11.886,15.711,11.886c5.607,0,10.158-2.597,13.235-6.007      c1.177-1.304,1.896-0.64,1.911-0.625c1.359,1.313,2.193,1.222,3.944,1.222c1.832,0,3.661-0.714,5.035-2.135      c2.687-2.78,2.61-7.211-0.169-9.898C133.252,162.08,128.181,157.178,118.218,154.354z" fill="#006DF0"/>
				<path d="M255.623,160.825c-1.054-3.72-4.923-5.882-8.643-4.827c-2.107,0.595-3.044,0.3-5.973-0.821      c-4.611-1.764-10.927-4.18-22.772-0.823c-9.963,2.823-15.035,7.726-18.391,10.969c-2.779,2.687-2.855,7.118-0.168,9.898      c1.373,1.421,3.202,2.135,5.033,2.135c1.752,0,2.62,0.064,3.979-1.25c0.015-0.015,0.915-0.589,1.933,0.723      c2.8,3.608,7.608,5.937,13.18,5.937c8.191,0,14.735-5.038,15.692-11.746c0.071-0.497,0.298-1.628,1.317-1.21      c2.969,0.847,5.354,0.969,9.984-0.343C254.517,168.414,256.677,164.544,255.623,160.825z" fill="#006DF0"/>
			</g>
			<path d="M286.858,76.228c-9.36-19.846-18.982-37.157-33.781-49.456C231.704,9.007,202.873,0,167.385,0     C91.666,0,63.787,42.793,47.263,82.055c-11.596,27.551-21.972,63.094-21.972,101.626c0,59.741,5.729,98.466,18.03,121.869     c10.948,20.829,26.899,30.117,51.722,30.116c10.365,0,21.357-1.543,32.995-3.176c12.821-1.799,26.079-3.659,39.795-3.659     c13.46,0,26.479,1.719,39.071,3.381c11.471,1.514,22.305,2.945,32.545,2.945c16.968,0,38.271-3.391,52.519-29.834     c12.559-23.309,18.407-61.962,18.407-121.642C310.375,139.301,300.158,104.425,286.858,76.228z M216.082,218.999v41.74     c0,2.068-1.112,3.193-1.951,3.792l-43.241,30.896c-0.074,0.043-3.071,2.005-5.632-0.35l-43.83-30.638     c-0.828-0.579-1.928-1.382-1.928-3.7l-0.004-39.807c0-2.917,1.459-2.83,1.619-2.913l43.201-11.055     c0.945-0.242,2.438-0.386,3.991-0.386c1.89,0,3.368,0.21,4.121,0.407l43.014,11.247     C215.68,218.34,216.041,218.808,216.082,218.999z M224.364,204.78c-1.918,0.651-4.303,0.192-5.315-0.072l-43.078-11.268     c-2.728-0.713-5.673-0.863-7.663-0.863c-1.936,0-4.802,0.143-7.461,0.823l-44.271,11.329c-1.005,0.257-3.869,0.945-5.682-0.129     l-42.357-18.701c-0.095-13.971-2.104-32.979,10.179-55.607c4.496-8.282,19.407-8.293,30.906-15.063     c3.829-2.253,7.787-4.583,11.873-6.876c3.958-2.221,7.145-5.376,10.942-6.465c7.72-2.212,24.613-2.851,32.12,0     c14.687,5.577,23.606,19.62,31.536,24.794c20.341,13.272,46.64,14.271,61.395,28.749c8.653,8.492,9.576,21.842,9.63,30.472     L224.364,204.78z M167.385,14.576c54.04,0,88.694,21.517,105.452,65.657c0.873,2.299,3.734,7.08-5.516,7.08h-196.5     c-8.75,0-8.385-4.997-7.397-7.397C81.258,36.538,116.155,14.576,167.385,14.576z M70.005,201.851l33.718,14.887     c1.182,0.61,1.777,1.694,1.777,3.527v37.792c0,3.125-2.329,2.309-3.619,0.949C89.583,246.046,74.651,226.035,70.005,201.851z      M230.082,257.807v-37.458c0-2.083,0.239-2.917,1.811-3.588l33.757-14.904c-4.131,21.306-16.546,40.755-31.48,56.55     C232.782,259.874,230.082,260.682,230.082,257.807z" fill="#006DF0"/>
		</g>
	</g>
</g>
<g>
</g>
<g>
</g>
<g>
</g>
<g>
</g>
<g>
</g>
<g>
</g>
<g>
</g>
<g>
</g>
<g>
</g>
<g>
</g>
<g>
</g>
<g>
</g>
<g>
</g>
<g>
</g>
<g>
</g>
</svg>
